<svg id="checked" xmlns="http://www.w3.org/2000/svg" width="84.993" height="84.993" viewBox="0 0 84.993 84.993">
  <defs>
    <style>
      .cls-1 {
        fill: #83c024;
      }
    </style>
  </defs>
  <g id="Group_3384" data-name="Group 3384" transform="translate(0)">
    <g id="Group_3383" data-name="Group 3383">
      <path id="Path_11009" data-name="Path 11009" class="cls-1" d="M72.546,12.447a42.5,42.5,0,1,0-60.1,60.1,42.5,42.5,0,0,0,60.1-60.1ZM42.5,81.607A39.111,39.111,0,1,1,81.607,42.5,39.155,39.155,0,0,1,42.5,81.607Z" transform="translate(0)"/>
    </g>
  </g>
  <g id="Group_3386" data-name="Group 3386" transform="translate(15.071 22.521)">
    <g id="Group_3385" data-name="Group 3385">
      <path id="Path_11010" data-name="Path 11010" class="cls-1" d="M142.384,137.4a5.933,5.933,0,0,0-8.38,0L109.072,162.33l-8.169-8.169a5.926,5.926,0,1,0-8.38,8.38l12.36,12.36a5.926,5.926,0,0,0,8.38,0l29.121-29.121A5.933,5.933,0,0,0,142.384,137.4Zm-2.394,5.986-29.121,29.121a2.539,2.539,0,0,1-3.591,0l-12.36-12.36a2.539,2.539,0,0,1,3.591-3.591l9.367,9.367a1.693,1.693,0,0,0,2.395,0L136.4,139.794a2.54,2.54,0,1,1,3.592,3.592Z" transform="translate(-90.789 -135.667)"/>
    </g>
  </g>
  <g id="Group_3388" data-name="Group 3388" transform="translate(40.804 49.438)">
    <g id="Group_3387" data-name="Group 3387">
      <path id="Path_11011" data-name="Path 11011" class="cls-1" d="M281.712,297.867a1.692,1.692,0,0,0-2.058,1.223,33.15,33.15,0,0,1-32.16,24.968,1.693,1.693,0,1,0,0,3.386,36.533,36.533,0,0,0,35.441-27.518A1.693,1.693,0,0,0,281.712,297.867Z" transform="translate(-245.801 -297.814)"/>
    </g>
  </g>
  <g id="Group_3390" data-name="Group 3390" transform="translate(75.649 40.804)">
    <g id="Group_3389" data-name="Group 3389">
      <path id="Path_11012" data-name="Path 11012" class="cls-1" d="M457.433,245.8a1.693,1.693,0,0,0-1.693,1.693c0,.484-.01.972-.031,1.451a1.693,1.693,0,0,0,1.618,1.765h.074a1.693,1.693,0,0,0,1.69-1.62c.023-.527.034-1.064.034-1.6A1.693,1.693,0,0,0,457.433,245.8Z" transform="translate(-455.707 -245.802)"/>
    </g>
  </g>
</svg>
