<svg xmlns="http://www.w3.org/2000/svg" width="13.98" height="14" viewBox="0 0 13.98 14">
  <g id="edit-pencil" transform="translate(0 0)">
    <g id="Group_83" data-name="Group 83" transform="translate(0 0)">
      <path id="Path_153" data-name="Path 153" d="M9.1.16.532,8.726A.591.591,0,0,0,.366,9.1L.3,13.465a.516.516,0,0,0,.166.387A.551.551,0,0,0,.854,14H.863L5.1,13.963a.536.536,0,0,0,.387-.148l8.639-8.639a.562.562,0,0,0,0-.784L9.881.151A.571.571,0,0,0,9.1.16ZM4.856,12.875l-3.439.046.055-3.578L7.189,3.627l3.458,3.458ZM11.421,6.31,7.972,2.853,9.494,1.331l3.448,3.458Z" transform="translate(-0.301 0)" fill="#585a5f"/>
    </g>
  </g>
</svg>
