<svg height="480pt" viewBox="0 0 480 480" width="480pt" xmlns="http://www.w3.org/2000/svg" fill="#fff"><path d="m440 0h-400c-22.082031.0273438-39.9726562 17.917969-40 40v400c.0273438 22.082031 17.917969 39.972656 40 40h400c22.082031-.027344 39.972656-17.917969 40-40v-400c-.027344-22.082031-17.917969-39.9726562-40-40zm-424 40c0-13.253906 10.746094-24 24-24h400c13.253906 0 24 10.746094 24 24v72h-448zm448 400c0 13.253906-10.746094 24-24 24h-400c-13.253906 0-24-10.746094-24-24v-312h448zm0 0"/><path d="m416 56h-352c-4.417969 0-8 3.582031-8 8s3.582031 8 8 8h352c4.417969 0 8-3.582031 8-8s-3.582031-8-8-8zm0 0"/><path d="m64 344c-4.417969 0-8 3.582031-8 8s3.582031 8 8 8h80v63.359375c0 4.417969 3.582031 8 8 8s8-3.582031 8-8v-63.359375h160v64c0 4.417969 3.582031 8 8 8s8-3.582031 8-8v-64h80c4.417969 0 8-3.582031 8-8s-3.582031-8-8-8h-80v-96h80c4.417969 0 8-3.582031 8-8s-3.582031-8-8-8h-80v-64c0-4.417969-3.582031-8-8-8s-8 3.582031-8 8v64h-160v-64c0-4.417969-3.582031-8-8-8s-8 3.582031-8 8v64h-80c-4.417969 0-8 3.582031-8 8s3.582031 8 8 8h80v96zm96-96h160v96h-160zm0 0"/></svg>