<svg xmlns="http://www.w3.org/2000/svg" width="90.979" height="103.504" viewBox="0 0 90.979 103.504">
    <defs>
        <style>
            .cls-1{fill:#83c024}.cls-2{fill:#219a3a}.cls-3{fill:#fff}
        </style>
    </defs>
    <g id="Group_3184" data-name="Group 3184" transform="translate(-69.748 -25.394)">
        <g id="Group_3182" data-name="Group 3182" transform="translate(69.748 25.394)">
            <g id="Group_3177" data-name="Group 3177" transform="translate(.929 .928)">
                <g id="Group_3176" data-name="Group 3176" transform="translate(0 .145)">
                    <path id="Path_10576" d="M119.617 132.309l-41.53-23.743a2.323 2.323 0 0 1-1.17-2.018l.029-47.348a2.323 2.323 0 0 1 1.165-2.012l41.349-23.769a2.323 2.323 0 0 1 2.316 0l41.238 23.707a2.323 2.323 0 0 1 1.165 2.015l-.026 47.46a2.323 2.323 0 0 1-1.162 2.011l-41.06 23.688a2.323 2.323 0 0 1-2.314.009z" class="cls-1" data-name="Path 10576" transform="translate(-75.988 -32.182)"/>
                    <path id="Path_10577" d="M118.115 130.892a3.253 3.253 0 0 1-1.614-.427l-41.53-23.743a3.26 3.26 0 0 1-1.638-2.826l.028-47.349a3.262 3.262 0 0 1 1.631-2.818l41.349-23.767a3.262 3.262 0 0 1 3.241 0l41.239 23.707a3.262 3.262 0 0 1 1.632 2.821l-.026 47.46a3.263 3.263 0 0 1-1.627 2.815l-41.06 23.693a3.256 3.256 0 0 1-1.625.434zm-.691-2.041a1.4 1.4 0 0 0 1.389 0l41.06-23.692a1.4 1.4 0 0 0 .7-1.207l.026-47.46a1.4 1.4 0 0 0-.7-1.209l-41.242-23.709a1.4 1.4 0 0 0-1.389 0L75.919 55.341a1.4 1.4 0 0 0-.7 1.207l-.027 47.352a1.4 1.4 0 0 0 .7 1.211z" class="cls-2" data-name="Path 10577" transform="translate(-73.333 -29.531)"/>
                </g>
                <path id="Path_10578" d="M116.964 130.315L74.5 106.04a2.322 2.322 0 0 1-1.17-2.018l.028-48.427a2.323 2.323 0 0 1 1.165-2.012l42.278-24.3a2.323 2.323 0 0 1 2.315 0l42.168 24.24a2.323 2.323 0 0 1 1.165 2.015l-.026 49.876-.465.269-42.684 24.63a2.323 2.323 0 0 1-2.31.002zm-40.6-25.353l40.6 23.211a2.323 2.323 0 0 0 2.314 0l40.133-23.159a2.323 2.323 0 0 0 1.156-2.014l.027-46.386a2.323 2.323 0 0 0-1.165-2.015L119.12 31.427a2.322 2.322 0 0 0-2.315 0l-40.42 23.231a2.324 2.324 0 0 0-1.165 2.013l-.028 46.272a2.323 2.323 0 0 0 1.17 2.019z" class="cls-2" data-name="Path 10578" transform="translate(-73.333 -28.972)"/>
            </g>
            <g id="Group_3179" data-name="Group 3179">
                <g id="Group_3178" data-name="Group 3178">
                    <path id="Path_10579" d="M116.964 130.315L74.5 106.04a2.322 2.322 0 0 1-1.17-2.018l.028-48.427a2.323 2.323 0 0 1 1.165-2.012l42.278-24.3a2.323 2.323 0 0 1 2.315 0l42.168 24.24a2.323 2.323 0 0 1 1.165 2.015l-.026 49.876-.465.269-42.684 24.63a2.323 2.323 0 0 1-2.31.002zm-40.6-25.353l40.6 23.211a2.323 2.323 0 0 0 2.314 0l40.133-23.159a2.323 2.323 0 0 0 1.156-2.014l.027-46.386a2.323 2.323 0 0 0-1.165-2.015L119.12 31.427a2.322 2.322 0 0 0-2.315 0l-40.42 23.231a2.324 2.324 0 0 0-1.165 2.013l-.028 46.272a2.323 2.323 0 0 0 1.17 2.019z" class="cls-2" data-name="Path 10579" transform="translate(-72.404 -28.044)"/>
                    <path id="Path_10580" d="M115.462 128.9a3.254 3.254 0 0 1-1.614-.427L71.386 104.2a3.261 3.261 0 0 1-1.638-2.826l.028-48.427a3.261 3.261 0 0 1 1.632-2.818l42.278-24.3a3.261 3.261 0 0 1 3.241 0L159.1 50.065a3.26 3.26 0 0 1 1.632 2.821L160.7 103.3l-.928.537-42.685 24.63a3.252 3.252 0 0 1-1.625.433zm-.692-2.041a1.4 1.4 0 0 0 1.388 0l.878-.507a3.264 3.264 0 0 1-3.1.034zM74.168 101.5l40.6 23.212a1.4 1.4 0 0 0 1.388 0l40.133-23.159a1.4 1.4 0 0 0 .7-1.206l.027-46.386a1.4 1.4 0 0 0-.7-1.209L116 29.582a1.4 1.4 0 0 0-1.389 0L74.193 52.814a1.4 1.4 0 0 0-.7 1.207l-.028 46.272a1.4 1.4 0 0 0 .7 1.211zm84.7-37.836l-.022 36.681a3.261 3.261 0 0 1-1.627 2.815l-26.485 15.283 28.113-16.222zm-87.256 36.69v1.014a1.4 1.4 0 0 0 .7 1.211l.919.525a3.259 3.259 0 0 1-1.624-2.746zm43.7-73.106a1.4 1.4 0 0 0-.694.185l-42.278 24.3a1.4 1.4 0 0 0-.7 1.207l-.014 23.049.013-21.974a3.261 3.261 0 0 1 1.628-2.815l40.419-23.232a3.262 3.262 0 0 1 3.241 0l40.31 23.171a3.26 3.26 0 0 1 1.631 2.759v-1.012a1.4 1.4 0 0 0-.7-1.209L116 27.436a1.4 1.4 0 0 0-.693-.184z" class="cls-2" data-name="Path 10580" transform="translate(-69.748 -25.394)"/>
                </g>
            </g>
            <g id="Group_3180" data-name="Group 3180" transform="translate(.012)">
                <path id="Path_10581" d="M119.243 29.281a2.323 2.323 0 0 0-2.315 0L73.584 54.193l-.085.993 49.857 57.121q.116.138.237.271l.171.2.012-.011a10.863 10.863 0 0 0 4.179 2.759 15.811 15.811 0 0 0 5.514.9c11.987 0 27.625-10.091 28.64-10.753l.441-.256.026-49.876a2.322 2.322 0 0 0-1.165-2.015zm41.448 75.058l-.02.011.012.022c-3.062 1.926-21.762 13.245-32.083 9.41a9.021 9.021 0 0 1-3.508-2.317l-.452-.518a10.132 10.132 0 0 1-1.146-1.767c-3.087-8.161-.766-14.421 6.9-18.6l.231-.125c2.066-1.14 7.061-1.823 7.108-1.83l2.906-.39L80.112 56.71a2.323 2.323 0 0 1-.085-4.074l36.9-21.209a2.323 2.323 0 0 1 2.315 0L159.553 54.6a2.323 2.323 0 0 1 1.165 2.015z" class="cls-2" data-name="Path 10581" transform="translate(-72.539 -28.045)"/>
                <path id="Path_10582" d="M130.726 114.7a16.764 16.764 0 0 1-5.838-.957 11.855 11.855 0 0 1-3.888-2.356l-.052.047-.8-.894a14.875 14.875 0 0 1-.248-.284L69.8 52.849l.161-1.87 43.765-25.153a3.262 3.262 0 0 1 3.241 0l42.168 24.24a3.26 3.26 0 0 1 1.632 2.821l-.027 50.41-.882.512c-1.812 1.178-17.083 10.891-29.132 10.891zm27.923-12.335l-.214.143c-2.538 1.6-12.427 7.55-21.785 9.621 10.083-2.224 20.739-8.944 22.086-9.811zm-35.61 5.825a8.053 8.053 0 0 0 3.142 2.07c4.069 1.512 10.324.636 18.089-2.534a91.512 91.512 0 0 0 12.413-6.319l-.026-.045.362-.209.026-47.191a1.4 1.4 0 0 0-.7-1.209l-40.31-23.171a1.4 1.4 0 0 0-1.389 0l-36.9 21.209a1.393 1.393 0 0 0 .051 2.444l63.131 32.881-5.813.78c-1.833.259-5.314.912-6.783 1.723l-.235.128c-7.282 3.968-9.407 9.662-6.494 17.406a9.169 9.169 0 0 0 1.008 1.547zm-1.527 1.084l.06.061-.4-.458a11.025 11.025 0 0 1-1.25-1.928l-.04-.092c-1.618-4.278-1.815-8.129-.584-11.446s3.892-6.109 7.911-8.3l.231-.125c2.051-1.132 6.531-1.808 7.408-1.932h.02L76.94 54.883a3.252 3.252 0 0 1-.118-5.7l36.9-21.209a3.262 3.262 0 0 1 3.241 0l40.31 23.171A3.26 3.26 0 0 1 158.9 53.9v-1.014a1.4 1.4 0 0 0-.7-1.209l-42.168-24.24a1.4 1.4 0 0 0-1.389 0L71.726 52.106l-.01.116 49.6 56.824c.068.084.132.154.196.229zm37.365-7.062v.013-.014zm0-.729l.012-22.446z" class="cls-2" data-name="Path 10582" transform="translate(-69.796 -25.394)"/>
            </g>
            <g id="Group_3181" data-name="Group 3181" transform="translate(7.527 35.355)">
                <path id="Path_10583" d="M99.479 187.255a3.227 3.227 0 0 0 1.685 1.43 8.235 8.235 0 0 0 2.494.457.856.856 0 0 0 .1-1.708 7.444 7.444 0 0 1-1.819-.283 1.9 1.9 0 0 1-.694-.378 2.053 2.053 0 0 1-.561-1.12 11.778 11.778 0 0 1-.2-2.519 7.463 7.463 0 0 1 2.309-5.376c2.117-2.164 5.45-3.583 8.253-4.409a35.5 35.5 0 0 1 3.577-.859 26.759 26.759 0 0 1 1.358-.219l.092-.012a.86.86 0 0 0 .467-.208l.02-.018c.516-.442 10.212-8.569 26.462-8.563a107.357 107.357 0 0 1 15.834.832 15.016 15.016 0 0 1 2.43.543 3.193 3.193 0 0 1 .327.13l.118.128c.461.5 1.652 1.823 2.944 3.446a34 34 0 0 1 3.493 5.16 7.6 7.6 0 0 1 .115.668c.073.531.142 1.205.191 1.739s.081.929.081.93a.865.865 0 0 0 .414.667 2.264 2.264 0 0 1 .268.2 4.492 4.492 0 0 1 1.441 3.529 8.124 8.124 0 0 1-.235 2.174 2.807 2.807 0 0 1-.659 1.229.855.855 0 1 0 1.235 1.182 4.51 4.51 0 0 0 1.071-1.951 9.868 9.868 0 0 0 .3-2.635 6.5 6.5 0 0 0-1.232-3.953 5.243 5.243 0 0 0-.929-.973 56.726 56.726 0 0 0-.252-2.383 7.351 7.351 0 0 0-.187-1l-.059-.145a37.857 37.857 0 0 0-4.277-6.21 63.698 63.698 0 0 0-2.678-3.077l-.081-.074c-.23-.174-.85-.586-3.569-1.026a108.492 108.492 0 0 0-16.1-.855c-16.075 0-25.94 7.628-27.4 8.836a35.183 35.183 0 0 0-8.143 2.2 17.95 17.95 0 0 0-5.9 3.762 9.179 9.179 0 0 0-2.8 6.574 14.724 14.724 0 0 0 .185 2.629 4.789 4.789 0 0 0 .511 1.509z" class="cls-3" data-name="Path 10583" transform="translate(-98.781 -161.757)"/>
                <path id="Path_10584" d="M322.564 248.17a6.242 6.242 0 1 0-6.241-6.243 6.245 6.245 0 0 0 6.241 6.243zm-3.2-9.447a4.533 4.533 0 1 1-1.327 3.2 4.509 4.509 0 0 1 1.323-3.2z" class="cls-3" data-name="Path 10584" transform="translate(-259.92 -216.518)"/>
                <path id="Path_10585" d="M128.324 241.927a6.242 6.242 0 1 0 6.243-6.241 6.245 6.245 0 0 0-6.243 6.241zm10.774 0a4.53 4.53 0 1 1-1.327-3.2 4.516 4.516 0 0 1 1.329 3.2z" class="cls-3" data-name="Path 10585" transform="translate(-120.664 -216.518)"/>
                <path id="Path_10586" d="M183.2 259.845a.855.855 0 0 0 0 1.71h31.723a.855.855 0 0 0 0-1.71z" class="cls-3" data-name="Path 10586" transform="translate(-160.681 -234.414)"/>
                <path id="Path_10587" d="M220.777 182.327a1.743 1.743 0 0 0 .652-.556 1.46 1.46 0 0 0 .259-.838 2.061 2.061 0 0 0-.429-1.189 4.7 4.7 0 0 0-.921-.925c-.3-.231-.685-.607-1.261-1.015a11.37 11.37 0 0 0-4.293-1.716 46.764 46.764 0 0 0-9.68-.78 44.277 44.277 0 0 0-12.426 2.105 29.789 29.789 0 0 0-5.644 2.378 9.52 9.52 0 0 0-3.637 3.223l-.021.043a2.138 2.138 0 0 0-.263.962 1.305 1.305 0 0 0 .2.71 1.412 1.412 0 0 0 .8.575 2.649 2.649 0 0 0 .775.1 10.161 10.161 0 0 0 1.643-.185c.546-.093 1.079-.191 1.462-.228.8-.079 7.966-.646 15.2-1.195 3.621-.276 7.266-.546 10.159-.75s5.046-.344 5.6-.352a4.2 4.2 0 0 0 1.825-.367zm-15.77-.387c-2.451.184-4.952.375-7.265.555-5.112.395-9.271.727-9.921.791-.5.051-1.054.156-1.582.244a9.832 9.832 0 0 1-1.228.155 8.343 8.343 0 0 1 2.872-2.409c4.4-2.53 12.237-4.271 17.222-4.259h.094zm8.22-.6c-1.913.136-4.16.3-6.5.475l.187-4.772c4.75.1 7.523.6 9.193 1.18a7.683 7.683 0 0 1 1.992.984c.459.321.783.639 1.192.96a3.135 3.135 0 0 1 .582.575l.056.1a3.039 3.039 0 0 1-1.005.143c-.677.008-2.793.146-5.697.351z" class="cls-3" data-name="Path 10587" transform="translate(-161.248 -171.795)"/>
            </g>
        </g>
    </g>
</svg>
