<svg id="photo-camera" xmlns="http://www.w3.org/2000/svg" width="13.814" height="12" viewBox="0 0 13.814 12">
  <g id="Group_36" data-name="Group 36" transform="translate(0 0)">
    <path id="Path_61" data-name="Path 61" d="M11.962,36.151l-1.45-.008L9.123,34.072a.459.459,0,0,0-.38-.213H5a.457.457,0,0,0-.372.2L3.2,36.144l-1.343.008A1.859,1.859,0,0,0,0,38v5.989a1.872,1.872,0,0,0,1.852,1.867h10.11a1.872,1.872,0,0,0,1.852-1.867V38A1.859,1.859,0,0,0,11.962,36.151Zm.941,7.841a.959.959,0,0,1-.941.956H1.852a.959.959,0,0,1-.941-.956V38a.946.946,0,0,1,.941-.941H3.438a.457.457,0,0,0,.372-.2l1.435-2.08H8.5l1.381,2.065a.468.468,0,0,0,.372.2l1.7.015A.946.946,0,0,1,12.9,38v5.989H12.9Z" transform="translate(0 -33.859)" fill="#fff"/>
    <path id="Path_62" data-name="Path 62" d="M141.973,160.225a3.139,3.139,0,1,0,3.14,3.139A3.142,3.142,0,0,0,141.973,160.225Zm0,5.393a2.253,2.253,0,1,1,2.253-2.253A2.257,2.257,0,0,1,141.973,165.618Z" transform="translate(-135.027 -156.734)" fill="#fff"/>
    <ellipse id="Ellipse_2" data-name="Ellipse 2" cx="0.17" cy="0.17" rx="0.17" ry="0.17" transform="translate(11.162 4.55)" fill="#fff"/>
    <path id="Path_63" data-name="Path 63" d="M397.563,186.575a.613.613,0,1,0,.613.613A.612.612,0,0,0,397.563,186.575Zm0,.886a.273.273,0,0,1-.273-.273.273.273,0,1,1,.547,0A.273.273,0,0,1,397.563,187.461Z" transform="translate(-386.231 -182.471)" fill="#fff"/>
  </g>
</svg>
