<svg xmlns="http://www.w3.org/2000/svg" width="82.936" height="60.635" viewBox="0 0 82.936 60.635">
  <defs>
    <style>
      .cls-1 {
        opacity: 0.5;
      }

      .cls-2 {
        fill: #a6adb4;
      }
    </style>
  </defs>
  <g id="add" class="cls-1" transform="translate(-7 -74.001)">
    <path id="Path_11013" data-name="Path 11013" class="cls-2" d="M179.257,158.113a7.186,7.186,0,1,0-7.186-7.186A7.186,7.186,0,0,0,179.257,158.113Zm0-11.71a4.524,4.524,0,1,1-4.524,4.524A4.524,4.524,0,0,1,179.257,146.4Z" transform="translate(-137.601 -58.135)"/>
    <path id="Path_11014" data-name="Path 11014" class="cls-2" d="M376.476,302.156h-5.824v-5.824a1.331,1.331,0,0,0-2.663,0v5.824h-5.658a1.331,1.331,0,0,0,0,2.663h5.658v5.658a1.331,1.331,0,0,0,2.663,0v-5.658h5.824a1.331,1.331,0,1,0,0-2.663Z" transform="translate(-295.09 -184.223)"/>
    <path id="Path_11015" data-name="Path 11015" class="cls-2" d="M84.381,107.137v-25.2A8,8,0,0,0,76.351,74h-61.4A7.923,7.923,0,0,0,7,81.942v40.123a7.986,7.986,0,0,0,7.947,8.016H63.353a15.576,15.576,0,0,0,26.582-11.012A15.785,15.785,0,0,0,84.381,107.137ZM14.947,76.662h61.4a5.329,5.329,0,0,1,5.368,5.279v23.393a15.49,15.49,0,0,0-7.342-1.833,15.825,15.825,0,0,0-1.741.1L61.483,95.7a1.335,1.335,0,0,0-1.706.137L44.747,110.61,27.277,102.1a1.292,1.292,0,0,0-1.231.045L9.662,111.656V81.942a5.257,5.257,0,0,1,5.284-5.279Zm-5.284,45.4v-7.33L26.768,104.8l15.973,7.8L27.673,127.418H14.947a5.321,5.321,0,0,1-5.284-5.354Zm21.809,5.354L60.847,98.532l8.3,5.874a15.571,15.571,0,0,0-7.93,23.012Zm42.883,4.539a12.9,12.9,0,1,1,12.9-12.9A12.9,12.9,0,0,1,74.355,131.957Z" transform="translate(0 0)"/>
  </g>
</svg>
