<svg xmlns="http://www.w3.org/2000/svg" width="18" height="13.337" viewBox="0 0 18 13.337">
  <g id="right-direction" transform="translate(-1)">
    <g id="Group_25" data-name="Group 25" transform="translate(1 0)">
      <path id="Path_37" data-name="Path 37" d="M0,61.747a.722.722,0,0,0,.72.72H15.386l-5.253,4.689a.72.72,0,0,0,.48,1.259.747.747,0,0,0,.48-.18l6.668-5.948a.709.709,0,0,0,.24-.54.728.728,0,0,0-.24-.54L11.093,55.26a.722.722,0,1,0-.959,1.079l5.253,4.689H.72A.722.722,0,0,0,0,61.747Z" transform="translate(0 -55.077)" fill="#727c8e"/>
    </g>
  </g>
</svg>
