<svg xmlns="http://www.w3.org/2000/svg" width="34.296" height="21.289" viewBox="0 0 34.296 21.289">
  <defs>
    <style>
      .cls-1 {
        fill: #585A5F;
      }
    </style>
  </defs>
  <g id="Group_3319" data-name="Group 3319" transform="translate(-1520 -43.68)">
    <path id="Path_10981" data-name="Path 10981" class="cls-1" d="M122.431,190.862a.931.931,0,0,0,1.03-.819c.443-3.885,1.743-5.8,4.347-6.406a.93.93,0,0,0,.059-1.8,4.129,4.129,0,1,1,2.4,0,.93.93,0,0,0,.059,1.8c2.6.605,3.9,2.521,4.347,6.406a.93.93,0,0,0,.923.825.953.953,0,0,0,.107-.006.93.93,0,0,0,.819-1.03c-.277-2.432-.985-5.609-3.756-7.223a5.99,5.99,0,1,0-7.4,0c-2.772,1.614-3.479,4.791-3.756,7.223A.93.93,0,0,0,122.431,190.862Z" transform="translate(1398.394 -125.899)"/>
    <g id="Group_3318" data-name="Group 3318" transform="translate(-1 -34.32)">
      <g id="Group_3317" data-name="Group 3317" transform="translate(1541 78)">
        <path id="Path_10982" data-name="Path 10982" class="cls-1" d="M242.109,363.042,242.09,363l-9.744,4.408a.3.3,0,0,0-.177.274v16.087a.3.3,0,0,0,.3.3h1.288a.3.3,0,0,0,.3-.3V368.9a.3.3,0,0,1,.177-.274l7.418-3.356a.3.3,0,0,1,.424.274v18.224a.3.3,0,0,0,.3.3h3.788a.3.3,0,0,0,.3-.3V367.747a.3.3,0,0,0-.083-.207Z" transform="translate(-232.169 -363)"/>
        <path id="Path_10983" data-name="Path 10983" class="cls-1" d="M243.065,383.957l4.332-1.342a.3.3,0,0,0,.211-.287V380.31a.3.3,0,0,0-.427-.272l-4.332,2.013a.3.3,0,0,0-.174.272v1.346A.3.3,0,0,0,243.065,383.957Z" transform="translate(-239.521 -374.902)"/>
        <path id="Path_10984" data-name="Path 10984" class="cls-1" d="M243.01,398.938l4.332-.5a.3.3,0,0,0,.266-.3v-1.9a.3.3,0,0,0-.378-.29l-4.332,1.159a.3.3,0,0,0-.223.29v1.239A.3.3,0,0,0,243.01,398.938Z" transform="translate(-239.521 -386.051)"/>
        <path id="Path_10985" data-name="Path 10985" class="cls-1" d="M242.976,413.263h4.332a.3.3,0,0,0,.3-.3V411.3a.3.3,0,0,0-.325-.3l-4.332.366a.3.3,0,0,0-.275.3v1.3A.3.3,0,0,0,242.976,413.263Z" transform="translate(-239.521 -396.586)"/>
        <rect id="Rectangle_9640" data-name="Rectangle 9640" class="cls-1" width="4.932" height="2.223" rx="1" transform="translate(3.155 18.831)"/>
      </g>
    </g>
  </g>
</svg>
