<svg xmlns="http://www.w3.org/2000/svg" width="24" height="24" viewBox="0 0 24 24">
    <g fill="#DF322F" fill-rule="nonzero">
        <path d="M12 24c6.61 0 12-5.37 12-12S18.61 0 12 0 0 5.39 0 12s5.39 12 12 12zm0-22.306c5.68 0 10.306 4.626 10.306 10.306 0 5.68-4.626 10.306-10.306 10.306C6.32 22.306 1.694 17.68 1.694 12 1.694 6.32 6.32 1.694 12 1.694z"/>
        <path d="M8.85 17.764a.858.858 0 0 0 .603.236.895.895 0 0 0 .604-.236l5.493-5.194a.767.767 0 0 0 .25-.57.767.767 0 0 0-.25-.57l-5.493-5.194a.89.89 0 0 0-1.207 0 .777.777 0 0 0 0 1.141L13.74 12l-4.89 4.623a.777.777 0 0 0 0 1.14z"/>
    </g>
</svg>
